# xmcd CD database file
#
# Track frame offsets:
#	150
#	25159
#	51790
#	82867
#	106238
#	134939
#	168101
#	192543
#	217379
#	246986
#
# Disc length: 3585 seconds
#
# Revision: 0
# Processed by: cddbd v1.5.1PL0 Copyright (c) Steve Scherf et al.
# Submitted via: CDex 1.50Beta7
#
DISCID=910dff0a
DTITLE=Mario DePriest - First Things First
DYEAR=2001
DGENRE=Jazz
TTITLE0=They Say It's Wonderful
TTITLE1=Three Mice with Dice
TTITLE2=My Ship
TTITLE3=My Favorite Things
TTITLE4=Sack Full of Dreams
TTITLE5=Who She Do
TTITLE6=If you Could see me Now
TTITLE7=Caught by a Certain Attitude
TTITLE8=Footprints
TTITLE9=It's Basically  Simple
EXTD=YEAR: 2001
EXTT0=
EXTT1=
EXTT2=
EXTT3=
EXTT4=
EXTT5=
EXTT6=
EXTT7=
EXTT8=
EXTT9=
PLAYORDER=
